<?xml version="1.0" encoding="iso-8859-1"?>
<!-- Generator: Adobe Illustrator 19.0.0, SVG Export Plug-In . SVG Version: 6.00 Build 0)  -->
<svg version="1.1" id="Capa_1" xmlns="http://www.w3.org/2000/svg" xmlns:xlink="http://www.w3.org/1999/xlink" x="0px" y="0px"
	 viewBox="0 0 512 512" style="enable-background:new 0 0 512 512;" xml:space="preserve">
<polygon style="fill:#C8E7F9;" points="467.816,408.093 444.521,410.028 160.978,433.515 130.221,62.331 127.784,32.921 
	434.622,7.499 "/>
<path style="fill:#B5DFF6;" d="M444.521,410.028l-283.543,23.487L130.221,62.331l219.775-42.602
	c10.038-1.946,19.756,4.618,21.702,14.657L444.521,410.028z"/>
<polygon style="fill:#6B7F9E;" points="428.069,257.453 415.154,258.522 175.388,278.385 157.054,57.135 154.863,30.676 
	407.543,9.745 "/>
<path style="fill:#586C89;" d="M415.154,258.522l-239.766,19.863l-18.334-221.25l192.942-37.406
	c10.038-1.946,19.756,4.618,21.702,14.657L415.154,258.522z"/>
<rect x="79.612" y="76.915" transform="matrix(-0.9817 0.1903 -0.1903 -0.9817 515.7213 506.2555)" style="fill:#C8E7F9;" width="307.882" height="401.95"/>
<rect x="115.288" y="448.364" transform="matrix(-0.9817 0.1903 -0.1903 -0.9817 621.4409 864.1304)" style="fill:#B5DFF6;" width="307.882" height="27.079"/>
<rect x="92.182" y="78.318" transform="matrix(-0.9817 0.1903 -0.1903 -0.9817 472.4504 359.8097)" style="fill:#00E7F1;" width="253.534" height="248.544"/>
<rect x="94.301" y="100.307" transform="matrix(-0.9817 0.1903 -0.1903 -0.9817 251.7884 424.9783)" style="fill:#00F7FD;" width="22.375" height="248.544"/>
<rect x="321.243" y="56.325" transform="matrix(-0.9817 0.1903 -0.1903 -0.9817 693.1546 294.6306)" style="fill:#00D8DE;" width="22.375" height="248.544"/>
<path style="fill:#FF90C1;" d="M232.621,273c0,0,0,0-0.015-0.01c-1.528-0.988-112.667-73.387-93.799-114.563
	c19.374-42.283,71.466,4.57,72.688,5.67c0.015,0.01,0.018,0.023,0.018,0.023s31.126-64.807,65.299-32.447
	C309.926,163.033,232.621,273,232.621,273z"/>
<path style="fill:#FF73AF;" d="M232.619,272.999c0,0,0,0-0.01-0.01c-1.49-0.96-106.4-69.3-95.1-110.95
	c20.27,39.17,89.19,84.05,90.39,84.83c0.01,0.01,0.01,0.01,0.01,0.01s47.27-67.23,52.05-111.54
	C304.479,170.779,232.619,272.999,232.619,272.999z"/>
<path d="M475.29,407.474l-17.028-205.502c-0.343-4.128-3.985-7.191-8.094-6.855c-4.128,0.342-7.197,3.966-6.855,8.094
	l16.409,198.027l-37.201,3.081l-3.302-17.035l5.441-0.452c4.128-0.343,7.196-3.967,6.854-8.095
	c-0.343-4.129-3.974-7.195-8.096-6.854l-7.071,0.587l-2.177-11.227l8.317-0.689c4.128-0.342,7.197-3.965,6.855-8.093
	c-0.342-4.129-3.971-7.191-8.094-6.856l-9.95,0.824l-15.275-78.792l32.666-2.709c4.128-0.342,7.196-3.966,6.854-8.094
	L415.636,16.598l12.13-1.005l12.386,149.473c0.325,3.917,3.604,6.881,7.466,6.881c0.208,0,0.418-0.009,0.628-0.026
	c4.128-0.342,7.197-3.966,6.855-8.094L442.096,6.88c-0.342-4.128-3.963-7.189-8.094-6.855L154.265,23.201
	c-0.008,0.001-0.015,0-0.023,0.001s-0.015,0.002-0.023,0.003l-27.055,2.242c-4.128,0.342-7.197,3.966-6.855,8.093l4.396,53.095
	L69.433,97.35c-0.001,0-0.002,0-0.002,0c-0.001,0-0.002,0.001-0.003,0.001l-26.672,5.171c-1.952,0.378-3.675,1.517-4.788,3.166
	s-1.525,3.672-1.147,5.625l39.589,204.21c0.789,4.066,4.716,6.727,8.791,5.936c4.066-0.788,6.724-4.724,5.936-8.79L52.973,115.82
	l11.949-2.316l45.877,236.645c0.695,3.584,3.835,6.074,7.355,6.074c0.473,0,0.953-0.045,1.436-0.139l182.042-35.291
	c4.066-0.788,6.724-4.724,5.936-8.79c-0.788-4.065-4.715-6.726-8.791-5.936l-174.679,33.864l-44.45-229.283L313.83,65.249
	l44.451,229.283l-27.663,5.363c-4.066,0.788-6.724,4.724-5.936,8.79c0.695,3.584,3.835,6.074,7.355,6.074
	c0.473,0,0.953-0.045,1.436-0.139l35.025-6.79c1.952-0.378,3.675-1.517,4.788-3.166s1.525-3.672,1.147-5.625L328.557,62.394
	l11.949-2.316l73.647,379.889l-287.532,55.742L97.848,347.295c-0.788-4.065-4.715-6.726-8.791-5.936
	c-4.066,0.788-6.724,4.724-5.936,8.79l30.2,155.777c0.695,3.584,3.835,6.074,7.355,6.074c0.473,0,0.953-0.045,1.436-0.139
	l302.258-58.597c1.952-0.378,3.675-1.517,4.788-3.166s1.525-3.672,1.147-5.625l-4.913-25.344l43.042-3.565
	c1.982-0.165,3.818-1.109,5.104-2.627C474.825,411.422,475.455,409.456,475.29,407.474z M135.876,39.776l12.132-1.005l3.539,42.66
	l-12.028,2.332L135.876,39.776z M345.013,43.925L166.361,78.559l-3.403-41.027l237.729-19.696l19.288,232.762l-26.824,2.224
	L353.804,49.861C353.015,45.795,349.087,43.136,345.013,43.925z"/>
<path d="M251.147,115.652c-19.62,3.619-34.674,24.685-41.886,36.88c-11.247-8.617-33.084-22.526-52.633-18.556
	c-7.479,1.521-17.824,6.455-24.636,21.326c-9.395,20.505,4.587,47.931,41.555,81.515c25.979,23.601,53.817,41.724,54.99,42.483
	c1.259,0.816,2.673,1.208,4.073,1.207c2.363,0,4.686-1.116,6.142-3.187c0.804-1.143,19.854-28.355,35.132-59.955
	c21.739-44.965,24.459-75.628,8.083-91.138C270.09,114.977,258.647,114.266,251.147,115.652z M271.653,137.117
	c10.763,10.194,6.784,36.323-11.204,73.574c-10.594,21.939-23.409,42.167-29.851,51.908c-9.587-6.609-28.951-20.521-46.965-36.886
	c-30.69-27.881-44.187-50.668-38.004-64.165c3.406-7.436,7.977-11.646,13.973-12.87c1.349-0.276,2.748-0.404,4.188-0.404
	c15.58,0,35.684,15.035,42.661,21.384c1.75,1.598,4.152,2.272,6.48,1.823c2.326-0.449,4.306-1.974,5.335-4.108
	c4.48-9.288,19.614-34.036,35.617-36.973C259.899,129.292,265.713,131.492,271.653,137.117z"/>
<path d="M369.865,388.841l-60.172,11.666c-4.066,0.788-6.724,4.724-5.936,8.79c0.695,3.584,3.835,6.074,7.355,6.074
	c0.473,0,0.953-0.045,1.436-0.139l60.172-11.666c4.066-0.788,6.724-4.724,5.936-8.79
	C377.867,390.711,373.938,388.05,369.865,388.841z"/>
<path d="M374.883,414.729l-21.689,4.205c-4.066,0.788-6.724,4.724-5.936,8.79c0.695,3.584,3.835,6.074,7.355,6.074
	c0.473,0,0.953-0.045,1.436-0.139l21.689-4.205c4.066-0.788,6.724-4.724,5.936-8.79C382.886,416.6,378.962,413.939,374.883,414.729z
	"/>
<g>
</g>
<g>
</g>
<g>
</g>
<g>
</g>
<g>
</g>
<g>
</g>
<g>
</g>
<g>
</g>
<g>
</g>
<g>
</g>
<g>
</g>
<g>
</g>
<g>
</g>
<g>
</g>
<g>
</g>
</svg>
